<svg xmlns="http://www.w3.org/2000/svg" xmlns:xlink="http://www.w3.org/1999/xlink" contentStyleType="text/css" height="929px" preserveAspectRatio="none" style="width:1079px;height:929px;background:#FFFFFF;" version="1.1" viewBox="0 0 1079 929" width="1079px" zoomAndPan="magnify"><defs/><g><!--cluster BirdAPI--><g id="cluster_BirdAPI"><path d="M8.5,6 L68.2002,6 A3.75,3.75 0 0 1 70.7002,8.5 L77.7002,28.2969 L1069.5,28.2969 A2.5,2.5 0 0 1 1072,30.7969 L1072,920.36 A2.5,2.5 0 0 1 1069.5,922.86 L8.5,922.86 A2.5,2.5 0 0 1 6,920.36 L6,8.5 A2.5,2.5 0 0 1 8.5,6 " fill="none" style="stroke:#000000;stroke-width:1.5;"/><line style="stroke:#000000;stroke-width:1.5;" x1="6" x2="77.7002" y1="28.2969" y2="28.2969"/><text fill="#000000" font-family="sans-serif" font-size="14" font-weight="bold" lengthAdjust="spacing" textLength="58.7002" x="10" y="20.9951">BirdAPI</text></g><!--cluster ApiService--><g id="cluster_ApiService"><path d="M50.5,49 L135.3564,49 A3.75,3.75 0 0 1 137.8564,51.5 L144.8564,71.2969 L1045.5,71.2969 A2.5,2.5 0 0 1 1048,73.7969 L1048,245.09 A2.5,2.5 0 0 1 1045.5,247.59 L50.5,247.59 A2.5,2.5 0 0 1 48,245.09 L48,51.5 A2.5,2.5 0 0 1 50.5,49 " fill="none" style="stroke:#000000;stroke-width:1.5;"/><line style="stroke:#000000;stroke-width:1.5;" x1="48" x2="144.8564" y1="71.2969" y2="71.2969"/><text fill="#000000" font-family="sans-serif" font-size="14" font-weight="bold" lengthAdjust="spacing" textLength="83.8564" x="52" y="63.9951">ApiService</text></g><!--cluster Controllers--><g id="cluster_Controllers"><path d="M74.5,92 L162.9043,92 A3.75,3.75 0 0 1 165.4043,94.5 L172.4043,114.2969 L649.5,114.2969 A2.5,2.5 0 0 1 652,116.7969 L652,221.09 A2.5,2.5 0 0 1 649.5,223.59 L74.5,223.59 A2.5,2.5 0 0 1 72,221.09 L72,94.5 A2.5,2.5 0 0 1 74.5,92 " fill="none" style="stroke:#000000;stroke-width:1.5;"/><line style="stroke:#000000;stroke-width:1.5;" x1="72" x2="172.4043" y1="114.2969" y2="114.2969"/><text fill="#000000" font-family="sans-serif" font-size="14" font-weight="bold" lengthAdjust="spacing" textLength="87.4043" x="76" y="106.9951">Controllers</text></g><!--cluster BackgroundServices--><g id="cluster_BackgroundServices"><path d="M678.5,100.15 L840.2607,100.15 A3.75,3.75 0 0 1 842.7607,102.65 L849.7607,122.4469 L1021.5,122.4469 A2.5,2.5 0 0 1 1024,124.9469 L1024,212.95 A2.5,2.5 0 0 1 1021.5,215.45 L678.5,215.45 A2.5,2.5 0 0 1 676,212.95 L676,102.65 A2.5,2.5 0 0 1 678.5,100.15 " fill="none" style="stroke:#000000;stroke-width:1.5;"/><line style="stroke:#000000;stroke-width:1.5;" x1="676" x2="849.7607" y1="122.4469" y2="122.4469"/><text fill="#000000" font-family="sans-serif" font-size="14" font-weight="bold" lengthAdjust="spacing" textLength="160.7607" x="680" y="115.1451">BackgroundServices</text></g><!--cluster Data--><g id="cluster_Data"><path d="M32.5,296.59 L70.708,296.59 A3.75,3.75 0 0 1 73.208,299.09 L80.208,318.8869 L1045.5,318.8869 A2.5,2.5 0 0 1 1048,321.3869 L1048,896.36 A2.5,2.5 0 0 1 1045.5,898.86 L32.5,898.86 A2.5,2.5 0 0 1 30,896.36 L30,299.09 A2.5,2.5 0 0 1 32.5,296.59 " fill="none" style="stroke:#000000;stroke-width:1.5;"/><line style="stroke:#000000;stroke-width:1.5;" x1="30" x2="80.208" y1="318.8869" y2="318.8869"/><text fill="#000000" font-family="sans-serif" font-size="14" font-weight="bold" lengthAdjust="spacing" textLength="37.208" x="34" y="311.5851">Data</text></g><!--cluster Repositories--><g id="cluster_Repositories"><path d="M56.5,339.59 L156.3887,339.59 A3.75,3.75 0 0 1 158.8887,342.09 L165.8887,361.8869 L1021.5,361.8869 A2.5,2.5 0 0 1 1024,364.3869 L1024,642.88 A2.5,2.5 0 0 1 1021.5,645.38 L56.5,645.38 A2.5,2.5 0 0 1 54,642.88 L54,342.09 A2.5,2.5 0 0 1 56.5,339.59 " fill="none" style="stroke:#000000;stroke-width:1.5;"/><line style="stroke:#000000;stroke-width:1.5;" x1="54" x2="165.8887" y1="361.8869" y2="361.8869"/><text fill="#000000" font-family="sans-serif" font-size="14" font-weight="bold" lengthAdjust="spacing" textLength="98.8887" x="58" y="354.5851">Repositories</text></g><!--cluster Models--><g id="cluster_Models"><path d="M446.5,694.38 L503.6982,694.38 A3.75,3.75 0 0 1 506.1982,696.88 L513.1982,716.6769 L794.5,716.6769 A2.5,2.5 0 0 1 797,719.1769 L797,872.36 A2.5,2.5 0 0 1 794.5,874.86 L446.5,874.86 A2.5,2.5 0 0 1 444,872.36 L444,696.88 A2.5,2.5 0 0 1 446.5,694.38 " fill="none" style="stroke:#000000;stroke-width:1.5;"/><line style="stroke:#000000;stroke-width:1.5;" x1="444" x2="513.1982" y1="716.6769" y2="716.6769"/><text fill="#000000" font-family="sans-serif" font-size="14" font-weight="bold" lengthAdjust="spacing" textLength="56.1982" x="448" y="709.3751">Models</text></g><!--class UserController--><g id="elem_UserController"><rect codeLine="3" fill="#F1F1F1" height="80.5938" id="UserController" rx="2.5" ry="2.5" style="stroke:#181818;stroke-width:0.5;" width="215.1094" x="88.45" y="127"/><ellipse cx="141.2132" cy="143" fill="#ADD1B2" rx="11" ry="11" style="stroke:#181818;stroke-width:1.0;"/><path d="M144.1819,148.6406 Q143.6038,148.9375 142.9632,149.0781 Q142.3226,149.2344 141.6194,149.2344 Q139.1194,149.2344 137.7913,147.5938 Q136.4788,145.9375 136.4788,142.8125 Q136.4788,139.6875 137.7913,138.0313 Q139.1194,136.375 141.6194,136.375 Q142.3226,136.375 142.9632,136.5313 Q143.6194,136.6875 144.1819,136.9844 L144.1819,139.7031 Q143.5569,139.125 142.9632,138.8594 Q142.3694,138.5781 141.7444,138.5781 Q140.4007,138.5781 139.7132,139.6563 Q139.0257,140.7188 139.0257,142.8125 Q139.0257,144.9063 139.7132,145.9844 Q140.4007,147.0469 141.7444,147.0469 Q142.3694,147.0469 142.9632,146.7813 Q143.5569,146.5 144.1819,145.9219 L144.1819,148.6406 Z " fill="#000000"/><text fill="#000000" font-family="sans-serif" font-size="14" lengthAdjust="spacing" textLength="101.083" x="161.7132" y="147.8467">UserController</text><line style="stroke:#181818;stroke-width:0.5;" x1="89.45" x2="302.5594" y1="159" y2="159"/><line style="stroke:#181818;stroke-width:0.5;" x1="89.45" x2="302.5594" y1="167" y2="167"/><ellipse cx="99.45" cy="180.6484" fill="#84BE84" rx="3" ry="3" style="stroke:#038048;stroke-width:1.0;"/><text fill="#000000" font-family="sans-serif" font-size="14" lengthAdjust="spacing" textLength="189.1094" x="108.45" y="183.9951">Get(): IEnumerable&lt;User&gt;</text><ellipse cx="99.45" cy="196.9453" fill="#84BE84" rx="3" ry="3" style="stroke:#038048;stroke-width:1.0;"/><text fill="#000000" font-family="sans-serif" font-size="14" lengthAdjust="spacing" textLength="114.3242" x="108.45" y="200.292">Post(User): Task</text></g><!--class XenoCantoEntryController--><g id="elem_XenoCantoEntryController"><rect codeLine="8" fill="#F1F1F1" height="80.5938" id="XenoCantoEntryController" rx="2.5" ry="2.5" style="stroke:#181818;stroke-width:0.5;" width="297.373" x="338.31" y="127"/><ellipse cx="391.0732" cy="143" fill="#ADD1B2" rx="11" ry="11" style="stroke:#181818;stroke-width:1.0;"/><path d="M394.0419,148.6406 Q393.4638,148.9375 392.8232,149.0781 Q392.1826,149.2344 391.4794,149.2344 Q388.9794,149.2344 387.6513,147.5938 Q386.3388,145.9375 386.3388,142.8125 Q386.3388,139.6875 387.6513,138.0313 Q388.9794,136.375 391.4794,136.375 Q392.1826,136.375 392.8232,136.5313 Q393.4794,136.6875 394.0419,136.9844 L394.0419,139.7031 Q393.4169,139.125 392.8232,138.8594 Q392.2294,138.5781 391.6044,138.5781 Q390.2607,138.5781 389.5732,139.6563 Q388.8857,140.7188 388.8857,142.8125 Q388.8857,144.9063 389.5732,145.9844 Q390.2607,147.0469 391.6044,147.0469 Q392.2294,147.0469 392.8232,146.7813 Q393.4169,146.5 394.0419,145.9219 L394.0419,148.6406 Z " fill="#000000"/><text fill="#000000" font-family="sans-serif" font-size="14" lengthAdjust="spacing" textLength="183.3467" x="411.5732" y="147.8467">XenoCantoEntryController</text><line style="stroke:#181818;stroke-width:0.5;" x1="339.31" x2="634.683" y1="159" y2="159"/><line style="stroke:#181818;stroke-width:0.5;" x1="339.31" x2="634.683" y1="167" y2="167"/><ellipse cx="349.31" cy="180.6484" fill="#84BE84" rx="3" ry="3" style="stroke:#038048;stroke-width:1.0;"/><text fill="#000000" font-family="sans-serif" font-size="14" lengthAdjust="spacing" textLength="271.373" x="358.31" y="183.9951">Get(): IEnumerable&lt;XenoCantoEntry&gt;</text><ellipse cx="349.31" cy="196.9453" fill="#84BE84" rx="3" ry="3" style="stroke:#038048;stroke-width:1.0;"/><text fill="#000000" font-family="sans-serif" font-size="14" lengthAdjust="spacing" textLength="196.5879" x="358.31" y="200.292">Post(XenoCantoEntry): Task</text></g><!--class XenoCantoEntryFetcher--><g id="elem_XenoCantoEntryFetcher"><rect codeLine="15" fill="#F1F1F1" height="64.2969" id="XenoCantoEntryFetcher" rx="2.5" ry="2.5" style="stroke:#181818;stroke-width:0.5;" width="316.4453" x="691.78" y="135.15"/><ellipse cx="762.1184" cy="151.15" fill="#ADD1B2" rx="11" ry="11" style="stroke:#181818;stroke-width:1.0;"/><path d="M765.0871,156.7906 Q764.509,157.0875 763.8684,157.2281 Q763.2278,157.3844 762.5246,157.3844 Q760.0246,157.3844 758.6965,155.7437 Q757.384,154.0875 757.384,150.9625 Q757.384,147.8375 758.6965,146.1812 Q760.0246,144.525 762.5246,144.525 Q763.2278,144.525 763.8684,144.6812 Q764.5246,144.8375 765.0871,145.1344 L765.0871,147.8531 Q764.4621,147.275 763.8684,147.0094 Q763.2746,146.7281 762.6496,146.7281 Q761.3059,146.7281 760.6184,147.8062 Q759.9309,148.8687 759.9309,150.9625 Q759.9309,153.0562 760.6184,154.1344 Q761.3059,155.1969 762.6496,155.1969 Q763.2746,155.1969 763.8684,154.9312 Q764.4621,154.65 765.0871,154.0719 L765.0871,156.7906 Z " fill="#000000"/><text fill="#000000" font-family="sans-serif" font-size="14" lengthAdjust="spacing" textLength="167.2686" x="782.6184" y="155.9967">XenoCantoEntryFetcher</text><line style="stroke:#181818;stroke-width:0.5;" x1="692.78" x2="1007.2253" y1="167.15" y2="167.15"/><line style="stroke:#181818;stroke-width:0.5;" x1="692.78" x2="1007.2253" y1="175.15" y2="175.15"/><ellipse cx="702.78" cy="188.7984" fill="#84BE84" rx="3" ry="3" style="stroke:#038048;stroke-width:1.0;"/><text fill="#000000" font-family="sans-serif" font-size="14" lengthAdjust="spacing" textLength="290.4453" x="711.78" y="192.1451">FetchXcEntities(CancellationToken): Task</text></g><!--class IUserRepository--><g id="elem_IUserRepository"><rect codeLine="22" fill="#F1F1F1" height="96.8906" id="IUserRepository" rx="2.5" ry="2.5" style="stroke:#181818;stroke-width:0.5;" width="434.3105" x="69.84" y="374.59"/><ellipse cx="227.1896" cy="390.59" fill="#B4A7E5" rx="11" ry="11" style="stroke:#181818;stroke-width:1.0;"/><path d="M223.1115,386.3556 L223.1115,384.1994 L230.5021,384.1994 L230.5021,386.3556 L228.0334,386.3556 L228.0334,394.4338 L230.5021,394.4338 L230.5021,396.59 L223.1115,396.59 L223.1115,394.4338 L225.5802,394.4338 L225.5802,386.3556 L223.1115,386.3556 Z " fill="#000000"/><text fill="#000000" font-family="sans-serif" font-size="14" font-style="italic" lengthAdjust="spacing" textLength="111.1113" x="247.6896" y="395.4367">IUserRepository</text><line style="stroke:#181818;stroke-width:0.5;" x1="70.84" x2="503.1505" y1="406.59" y2="406.59"/><line style="stroke:#181818;stroke-width:0.5;" x1="70.84" x2="503.1505" y1="414.59" y2="414.59"/><ellipse cx="80.84" cy="428.2384" fill="#84BE84" rx="3" ry="3" style="stroke:#038048;stroke-width:1.0;"/><text fill="#000000" font-family="sans-serif" font-size="14" lengthAdjust="spacing" textLength="323.8457" x="89.84" y="431.5851">AddUserAsync(User, CancellationToken): Task</text><ellipse cx="80.84" cy="444.5353" fill="#84BE84" rx="3" ry="3" style="stroke:#038048;stroke-width:1.0;"/><text fill="#000000" font-family="sans-serif" font-size="14" lengthAdjust="spacing" textLength="408.3105" x="89.84" y="447.882">GetUserByIdAsync(Guid, CancellationToken): Task&lt;User&gt;</text><ellipse cx="80.84" cy="460.8322" fill="#84BE84" rx="3" ry="3" style="stroke:#038048;stroke-width:1.0;"/><text fill="#000000" font-family="sans-serif" font-size="14" lengthAdjust="spacing" textLength="398.4531" x="89.84" y="464.1789">DeleteUserAsync(Guid, CancellationToken): Task&lt;User&gt;</text></g><!--class UserRepository--><g id="elem_UserRepository"><rect codeLine="28" fill="#F1F1F1" height="96.8906" id="UserRepository" rx="2.5" ry="2.5" style="stroke:#181818;stroke-width:0.5;" width="434.3105" x="69.84" y="532.49"/><ellipse cx="229.2541" cy="548.49" fill="#ADD1B2" rx="11" ry="11" style="stroke:#181818;stroke-width:1.0;"/><path d="M232.2228,554.1306 Q231.6447,554.4275 231.0041,554.5681 Q230.3634,554.7244 229.6603,554.7244 Q227.1603,554.7244 225.8322,553.0838 Q224.5197,551.4275 224.5197,548.3025 Q224.5197,545.1775 225.8322,543.5213 Q227.1603,541.865 229.6603,541.865 Q230.3634,541.865 231.0041,542.0213 Q231.6603,542.1775 232.2228,542.4744 L232.2228,545.1931 Q231.5978,544.615 231.0041,544.3494 Q230.4103,544.0681 229.7853,544.0681 Q228.4416,544.0681 227.7541,545.1463 Q227.0666,546.2088 227.0666,548.3025 Q227.0666,550.3963 227.7541,551.4744 Q228.4416,552.5369 229.7853,552.5369 Q230.4103,552.5369 231.0041,552.2713 Q231.5978,551.99 232.2228,551.4119 L232.2228,554.1306 Z " fill="#000000"/><text fill="#000000" font-family="sans-serif" font-size="14" lengthAdjust="spacing" textLength="106.9824" x="249.7541" y="553.3367">UserRepository</text><line style="stroke:#181818;stroke-width:0.5;" x1="70.84" x2="503.1505" y1="564.49" y2="564.49"/><line style="stroke:#181818;stroke-width:0.5;" x1="70.84" x2="503.1505" y1="572.49" y2="572.49"/><ellipse cx="80.84" cy="586.1384" fill="#84BE84" rx="3" ry="3" style="stroke:#038048;stroke-width:1.0;"/><text fill="#000000" font-family="sans-serif" font-size="14" lengthAdjust="spacing" textLength="323.8457" x="89.84" y="589.4851">AddUserAsync(User, CancellationToken): Task</text><ellipse cx="80.84" cy="602.4353" fill="#84BE84" rx="3" ry="3" style="stroke:#038048;stroke-width:1.0;"/><text fill="#000000" font-family="sans-serif" font-size="14" lengthAdjust="spacing" textLength="408.3105" x="89.84" y="605.782">GetUserByIdAsync(Guid, CancellationToken): Task&lt;User&gt;</text><ellipse cx="80.84" cy="618.7322" fill="#84BE84" rx="3" ry="3" style="stroke:#038048;stroke-width:1.0;"/><text fill="#000000" font-family="sans-serif" font-size="14" lengthAdjust="spacing" textLength="398.4531" x="89.84" y="622.0789">DeleteUserAsync(Guid, CancellationToken): Task&lt;User&gt;</text></g><!--class IXenoCantoEntriyRepository--><g id="elem_IXenoCantoEntriyRepository"><rect codeLine="34" fill="#F1F1F1" height="64.2969" id="IXenoCantoEntriyRepository" rx="2.5" ry="2.5" style="stroke:#181818;stroke-width:0.5;" width="468.8936" x="539.55" y="390.89"/><ellipse cx="671.1145" cy="406.89" fill="#B4A7E5" rx="11" ry="11" style="stroke:#181818;stroke-width:1.0;"/><path d="M667.0363,402.6556 L667.0363,400.4994 L674.427,400.4994 L674.427,402.6556 L671.9582,402.6556 L671.9582,410.7338 L674.427,410.7338 L674.427,412.89 L667.0363,412.89 L667.0363,410.7338 L669.5051,410.7338 L669.5051,402.6556 L667.0363,402.6556 Z " fill="#000000"/><text fill="#000000" font-family="sans-serif" font-size="14" font-style="italic" lengthAdjust="spacing" textLength="197.2646" x="691.6145" y="411.7367">IXenoCantoEntriyRepository</text><line style="stroke:#181818;stroke-width:0.5;" x1="540.55" x2="1007.4436" y1="422.89" y2="422.89"/><line style="stroke:#181818;stroke-width:0.5;" x1="540.55" x2="1007.4436" y1="430.89" y2="430.89"/><ellipse cx="550.55" cy="444.5384" fill="#84BE84" rx="3" ry="3" style="stroke:#038048;stroke-width:1.0;"/><text fill="#000000" font-family="sans-serif" font-size="14" lengthAdjust="spacing" textLength="442.8936" x="559.55" y="447.8851">GetXenoCantoEntryByIdAsync(string, CancellationToken): Task</text></g><!--class XenoCantoEntryRepository--><g id="elem_XenoCantoEntryRepository"><rect codeLine="38" fill="#F1F1F1" height="64.2969" id="XenoCantoEntryRepository" rx="2.5" ry="2.5" style="stroke:#181818;stroke-width:0.5;" width="468.8936" x="539.55" y="548.78"/><ellipse cx="675.1237" cy="564.78" fill="#ADD1B2" rx="11" ry="11" style="stroke:#181818;stroke-width:1.0;"/><path d="M678.0925,570.4206 Q677.5144,570.7175 676.8737,570.8581 Q676.2331,571.0144 675.53,571.0144 Q673.03,571.0144 671.7019,569.3738 Q670.3894,567.7175 670.3894,564.5925 Q670.3894,561.4675 671.7019,559.8113 Q673.03,558.155 675.53,558.155 Q676.2331,558.155 676.8737,558.3113 Q677.53,558.4675 678.0925,558.7644 L678.0925,561.4831 Q677.4675,560.905 676.8737,560.6394 Q676.28,560.3581 675.655,560.3581 Q674.3112,560.3581 673.6237,561.4363 Q672.9362,562.4988 672.9362,564.5925 Q672.9362,566.6863 673.6237,567.7644 Q674.3112,568.8269 675.655,568.8269 Q676.28,568.8269 676.8737,568.5613 Q677.4675,568.28 678.0925,567.7019 L678.0925,570.4206 Z " fill="#000000"/><text fill="#000000" font-family="sans-serif" font-size="14" lengthAdjust="spacing" textLength="189.2461" x="695.6237" y="569.6267">XenoCantoEntryRepository</text><line style="stroke:#181818;stroke-width:0.5;" x1="540.55" x2="1007.4436" y1="580.78" y2="580.78"/><line style="stroke:#181818;stroke-width:0.5;" x1="540.55" x2="1007.4436" y1="588.78" y2="588.78"/><ellipse cx="550.55" cy="602.4284" fill="#84BE84" rx="3" ry="3" style="stroke:#038048;stroke-width:1.0;"/><text fill="#000000" font-family="sans-serif" font-size="14" lengthAdjust="spacing" textLength="442.8936" x="559.55" y="605.7751">GetXenoCantoEntryByIdAsync(string, CancellationToken): Task</text></g><!--class User--><g id="elem_User"><rect codeLine="46" fill="#F1F1F1" height="80.5938" id="User" rx="2.5" ry="2.5" style="stroke:#181818;stroke-width:0.5;" width="116.6582" x="459.67" y="753.82"/><ellipse cx="498.4066" cy="769.82" fill="#ADD1B2" rx="11" ry="11" style="stroke:#181818;stroke-width:1.0;"/><path d="M501.3754,775.4606 Q500.7972,775.7575 500.1566,775.8981 Q499.516,776.0544 498.8129,776.0544 Q496.3129,776.0544 494.9847,774.4138 Q493.6722,772.7575 493.6722,769.6325 Q493.6722,766.5075 494.9847,764.8513 Q496.3129,763.195 498.8129,763.195 Q499.516,763.195 500.1566,763.3513 Q500.8129,763.5075 501.3754,763.8044 L501.3754,766.5231 Q500.7504,765.945 500.1566,765.6794 Q499.5629,765.3981 498.9379,765.3981 Q497.5941,765.3981 496.9066,766.4763 Q496.2191,767.5388 496.2191,769.6325 Q496.2191,771.7263 496.9066,772.8044 Q497.5941,773.8669 498.9379,773.8669 Q499.5629,773.8669 500.1566,773.6013 Q500.7504,773.32 501.3754,772.7419 L501.3754,775.4606 Z " fill="#000000"/><text fill="#000000" font-family="sans-serif" font-size="14" lengthAdjust="spacing" textLength="31.9102" x="517.6814" y="774.6667">User</text><line style="stroke:#181818;stroke-width:0.5;" x1="460.67" x2="575.3282" y1="785.82" y2="785.82"/><ellipse cx="470.67" cy="799.4684" fill="none" rx="3" ry="3" style="stroke:#038048;stroke-width:1.0;"/><text fill="#000000" font-family="sans-serif" font-size="14" lengthAdjust="spacing" textLength="54.6807" x="479.67" y="802.8151">Id: Guid</text><ellipse cx="470.67" cy="815.7653" fill="none" rx="3" ry="3" style="stroke:#038048;stroke-width:1.0;"/><text fill="#000000" font-family="sans-serif" font-size="14" lengthAdjust="spacing" textLength="90.6582" x="479.67" y="819.112">Name: string</text><line style="stroke:#181818;stroke-width:0.5;" x1="460.67" x2="575.3282" y1="826.4138" y2="826.4138"/></g><!--class XenoCantoEntry--><g id="elem_XenoCantoEntry"><rect codeLine="51" fill="#F1F1F1" height="129.4844" id="XenoCantoEntry" rx="2.5" ry="2.5" style="stroke:#181818;stroke-width:0.5;" width="170.0674" x="610.97" y="729.38"/><ellipse cx="636.7221" cy="745.38" fill="#ADD1B2" rx="11" ry="11" style="stroke:#181818;stroke-width:1.0;"/><path d="M639.6908,751.0206 Q639.1127,751.3175 638.4721,751.4581 Q637.8315,751.6144 637.1283,751.6144 Q634.6283,751.6144 633.3002,749.9738 Q631.9877,748.3175 631.9877,745.1925 Q631.9877,742.0675 633.3002,740.4113 Q634.6283,738.755 637.1283,738.755 Q637.8315,738.755 638.4721,738.9113 Q639.1283,739.0675 639.6908,739.3644 L639.6908,742.0831 Q639.0658,741.505 638.4721,741.2394 Q637.8783,740.9581 637.2533,740.9581 Q635.9096,740.9581 635.2221,742.0363 Q634.5346,743.0988 634.5346,745.1925 Q634.5346,747.2863 635.2221,748.3644 Q635.9096,749.4269 637.2533,749.4269 Q637.8783,749.4269 638.4721,749.1613 Q639.0658,748.88 639.6908,748.3019 L639.6908,751.0206 Z " fill="#000000"/><text fill="#000000" font-family="sans-serif" font-size="14" lengthAdjust="spacing" textLength="114.1738" x="653.1115" y="750.2267">XenoCantoEntry</text><line style="stroke:#181818;stroke-width:0.5;" x1="611.97" x2="780.0374" y1="761.38" y2="761.38"/><ellipse cx="621.97" cy="775.0284" fill="none" rx="3" ry="3" style="stroke:#038048;stroke-width:1.0;"/><text fill="#000000" font-family="sans-serif" font-size="14" lengthAdjust="spacing" textLength="62.3711" x="630.97" y="778.3751">Id: string</text><ellipse cx="621.97" cy="791.3253" fill="none" rx="3" ry="3" style="stroke:#038048;stroke-width:1.0;"/><text fill="#000000" font-family="sans-serif" font-size="14" lengthAdjust="spacing" textLength="90.6582" x="630.97" y="794.672">Name: string</text><ellipse cx="621.97" cy="807.6222" fill="none" rx="3" ry="3" style="stroke:#038048;stroke-width:1.0;"/><text fill="#000000" font-family="sans-serif" font-size="14" lengthAdjust="spacing" textLength="69.248" x="630.97" y="810.9689">Url: string</text><ellipse cx="621.97" cy="823.9191" fill="none" rx="3" ry="3" style="stroke:#038048;stroke-width:1.0;"/><text fill="#000000" font-family="sans-serif" font-size="14" lengthAdjust="spacing" textLength="75.9541" x="630.97" y="827.2657">Length: int</text><ellipse cx="621.97" cy="840.2159" fill="none" rx="3" ry="3" style="stroke:#038048;stroke-width:1.0;"/><text fill="#000000" font-family="sans-serif" font-size="14" lengthAdjust="spacing" textLength="144.0674" x="630.97" y="843.5626">Recorded: DateTime</text><line style="stroke:#181818;stroke-width:0.5;" x1="611.97" x2="780.0374" y1="850.8644" y2="850.8644"/></g><!--reverse link IUserRepository to UserRepository--><g id="link_IUserRepository_UserRepository"><path d="M287,489.66 C287,508.82 287,512.88 287,532.07 " fill="none" id="IUserRepository-backto-UserRepository" style="stroke:#181818;stroke-width:1.0;stroke-dasharray:7.0,7.0;"/><polygon fill="none" points="287,471.66,281,489.66,293,489.66,287,471.66" style="stroke:#181818;stroke-width:1.0;"/></g><!--reverse link IXenoCantoEntriyRepository to XenoCantoEntryRepository--><g id="link_IXenoCantoEntriyRepository_XenoCantoEntryRepository"><path d="M774,473.59 C774,500.63 774,521.4 774,548.43 " fill="none" id="IXenoCantoEntriyRepository-backto-XenoCantoEntryRepository" style="stroke:#181818;stroke-width:1.0;stroke-dasharray:7.0,7.0;"/><polygon fill="none" points="774,455.59,768,473.59,780,473.59,774,455.59" style="stroke:#181818;stroke-width:1.0;"/></g><!--link UserRepository to User--><g id="link_UserRepository_User"><path codeLine="61" d="M339.42,629.85 C380.28,667.21 431.9216,714.4216 470.2616,749.4716 " fill="none" id="UserRepository-to-User" style="stroke:#181818;stroke-width:1.0;stroke-dasharray:7.0,7.0;"/><polygon fill="#181818" points="474.69,753.52,470.7463,744.4952,470.9997,750.1463,465.3485,750.3997,474.69,753.52" style="stroke:#181818;stroke-width:1.0;"/><text fill="#000000" font-family="sans-serif" font-size="13" lengthAdjust="spacing" textLength="38.9175" x="389" y="674.4469">&#171;use&#187;</text></g><!--link XenoCantoEntryRepository to XenoCantoEntry--><g id="link_XenoCantoEntryRepository_XenoCantoEntry"><path codeLine="62" d="M762.32,613.55 C751.1,643.92 735.8989,685.0917 721.7889,723.2917 " fill="none" id="XenoCantoEntryRepository-to-XenoCantoEntry" style="stroke:#181818;stroke-width:1.0;stroke-dasharray:7.0,7.0;"/><polygon fill="#181818" points="719.71,728.92,726.5806,721.8635,721.4425,724.2297,719.0762,719.0916,719.71,728.92" style="stroke:#181818;stroke-width:1.0;"/><text fill="#000000" font-family="sans-serif" font-size="13" lengthAdjust="spacing" textLength="38.9175" x="745" y="674.4469">&#171;use&#187;</text></g><!--link XenoCantoEntryFetcher to IXenoCantoEntriyRepository--><g id="link_XenoCantoEntryFetcher_IXenoCantoEntriyRepository"><path codeLine="65" d="M840.53,199.92 C825.92,248.68 799.7911,335.9121 785.1911,384.6721 " fill="none" id="XenoCantoEntryFetcher-to-IXenoCantoEntriyRepository" style="stroke:#181818;stroke-width:1.0;stroke-dasharray:7.0,7.0;"/><polygon fill="#181818" points="783.47,390.42,789.8835,382.9456,784.9042,385.6301,782.2197,380.6508,783.47,390.42" style="stroke:#181818;stroke-width:1.0;"/><text fill="#000000" font-family="sans-serif" font-size="13" lengthAdjust="spacing" textLength="38.9175" x="822" y="276.6569">&#171;use&#187;</text></g><!--link UserController to IUserRepository--><g id="link_UserController_IUserRepository"><path codeLine="66" d="M210.22,207.94 C226.36,252.97 250.6745,320.7422 267.9145,368.8122 " fill="none" id="UserController-to-IUserRepository" style="stroke:#181818;stroke-width:1.0;stroke-dasharray:7.0,7.0;"/><polygon fill="#181818" points="269.94,374.46,270.6669,364.638,268.2521,369.7535,263.1365,367.3387,269.94,374.46" style="stroke:#181818;stroke-width:1.0;"/><text fill="#000000" font-family="sans-serif" font-size="13" lengthAdjust="spacing" textLength="38.9175" x="237" y="276.6569">&#171;use&#187;</text></g><!--link XenoCantoEntryController to IXenoCantoEntriyRepository--><g id="link_XenoCantoEntryController_IXenoCantoEntriyRepository"><path codeLine="67" d="M531.84,207.94 C588.91,258.4 681.8452,340.5555 734.0252,386.6955 " fill="none" id="XenoCantoEntryController-to-IXenoCantoEntriyRepository" style="stroke:#181818;stroke-width:1.0;stroke-dasharray:7.0,7.0;"/><polygon fill="#181818" points="738.52,390.67,734.4275,381.7117,734.7743,387.3579,729.1281,387.7048,738.52,390.67" style="stroke:#181818;stroke-width:1.0;"/><text fill="#000000" font-family="sans-serif" font-size="13" lengthAdjust="spacing" textLength="38.9175" x="614" y="276.6569">&#171;use&#187;</text></g><!--SRC=[tLHDQyCm3BtdLvYTEZRo0q89z6ibi8tIjT2hPskjgMC7sns4qVy-E_r8x2PjJplCXnmaFUdfIL61oHQl0JqCcQA3MHOF2lO1wfiHY4TI62Kv1wKVq4-4x2CSQusM6bJjFBhSUvg2wJqcA9k8NGuAVtBek-2qZfX9RNhEPiCMM6yhppvgP5-1a2CiZ9pO2kNTTNnOMD7t-hLjzU8eGuiAG-jQAxaJz6ZHdXP-uXSmPEDJhKmhOjtCCD0z6qo0SsoO50kv1N51vipcF9GnDZYUGo4rCrBPBATvC650VM42A7EQdaFA9eC1fSuvqAKWbVJFw2g9ay8kT5Xcz02SxXZj1ePZ7WC70tNPkz7xwXiiMwClbXSSSX16_wEMmrbwIyNAzXujNN_vQkBQeiJwHiyNIllPEZJ_8shkD-Zu3zua1TvoaPe4CfeWftzjUSSv9EXG_TRD2JCrKEsvAkjIyKlZAuYrsIHkkBLn3aGg2ZQpRGWMB8VcG2onOB7ZE3rqcA1-VwSXJQFEMRdOe9iQ5KNjvyg1haosJX1S_WeNaEtY6CBkAHVz0W00]--></g></svg>