<svg xmlns="http://www.w3.org/2000/svg" xmlns:xlink="http://www.w3.org/1999/xlink" contentStyleType="text/css" height="928px" preserveAspectRatio="none" style="width:1064px;height:928px;background:#FFFFFF;" version="1.1" viewBox="0 0 1064 928" width="1064px" zoomAndPan="magnify"><defs/><g><!--cluster BirdAPI--><g id="cluster_BirdAPI"><path d="M8.5,6 L65.5,6 A3.75,3.75 0 0 1 68,8.5 L75,28.2969 L1054.5,28.2969 A2.5,2.5 0 0 1 1057,30.7969 L1057,919.36 A2.5,2.5 0 0 1 1054.5,921.86 L8.5,921.86 A2.5,2.5 0 0 1 6,919.36 L6,8.5 A2.5,2.5 0 0 1 8.5,6 " fill="none" style="stroke:#000000;stroke-width:1.5;"/><line style="stroke:#000000;stroke-width:1.5;" x1="6" x2="75" y1="28.2969" y2="28.2969"/><text fill="#000000" font-family="sans-serif" font-size="14" font-weight="bold" lengthAdjust="spacing" textLength="56" x="10" y="20.9951">BirdAPI</text></g><!--cluster ApiService--><g id="cluster_ApiService"><path d="M48.5,49 L133.5,49 A3.75,3.75 0 0 1 136,51.5 L143,71.2969 L1030.5,71.2969 A2.5,2.5 0 0 1 1033,73.7969 L1033,245.09 A2.5,2.5 0 0 1 1030.5,247.59 L48.5,247.59 A2.5,2.5 0 0 1 46,245.09 L46,51.5 A2.5,2.5 0 0 1 48.5,49 " fill="none" style="stroke:#000000;stroke-width:1.5;"/><line style="stroke:#000000;stroke-width:1.5;" x1="46" x2="143" y1="71.2969" y2="71.2969"/><text fill="#000000" font-family="sans-serif" font-size="14" font-weight="bold" lengthAdjust="spacing" textLength="84" x="50" y="63.9951">ApiService</text></g><!--cluster Controllers--><g id="cluster_Controllers"><path d="M72.5,92 L161.5,92 A3.75,3.75 0 0 1 164,94.5 L171,114.2969 L638.5,114.2969 A2.5,2.5 0 0 1 641,116.7969 L641,221.09 A2.5,2.5 0 0 1 638.5,223.59 L72.5,223.59 A2.5,2.5 0 0 1 70,221.09 L70,94.5 A2.5,2.5 0 0 1 72.5,92 " fill="none" style="stroke:#000000;stroke-width:1.5;"/><line style="stroke:#000000;stroke-width:1.5;" x1="70" x2="171" y1="114.2969" y2="114.2969"/><text fill="#000000" font-family="sans-serif" font-size="14" font-weight="bold" lengthAdjust="spacing" textLength="88" x="74" y="106.9951">Controllers</text></g><!--cluster BackgroundServices--><g id="cluster_BackgroundServices"><path d="M667.5,100.15 L830.5,100.15 A3.75,3.75 0 0 1 833,102.65 L840,122.4469 L1006.5,122.4469 A2.5,2.5 0 0 1 1009,124.9469 L1009,212.95 A2.5,2.5 0 0 1 1006.5,215.45 L667.5,215.45 A2.5,2.5 0 0 1 665,212.95 L665,102.65 A2.5,2.5 0 0 1 667.5,100.15 " fill="none" style="stroke:#000000;stroke-width:1.5;"/><line style="stroke:#000000;stroke-width:1.5;" x1="665" x2="840" y1="122.4469" y2="122.4469"/><text fill="#000000" font-family="sans-serif" font-size="14" font-weight="bold" lengthAdjust="spacing" textLength="162" x="669" y="115.1451">BackgroundServices</text></g><!--cluster Data--><g id="cluster_Data"><path d="M32.5,296.59 L68.5,296.59 A3.75,3.75 0 0 1 71,299.09 L78,318.8869 L1030.5,318.8869 A2.5,2.5 0 0 1 1033,321.3869 L1033,895.36 A2.5,2.5 0 0 1 1030.5,897.86 L32.5,897.86 A2.5,2.5 0 0 1 30,895.36 L30,299.09 A2.5,2.5 0 0 1 32.5,296.59 " fill="none" style="stroke:#000000;stroke-width:1.5;"/><line style="stroke:#000000;stroke-width:1.5;" x1="30" x2="78" y1="318.8869" y2="318.8869"/><text fill="#000000" font-family="sans-serif" font-size="14" font-weight="bold" lengthAdjust="spacing" textLength="35" x="34" y="311.5851">Data</text></g><!--cluster Repositories--><g id="cluster_Repositories"><path d="M56.5,339.59 L156.5,339.59 A3.75,3.75 0 0 1 159,342.09 L166,361.8869 L1006.5,361.8869 A2.5,2.5 0 0 1 1009,364.3869 L1009,641.88 A2.5,2.5 0 0 1 1006.5,644.38 L56.5,644.38 A2.5,2.5 0 0 1 54,641.88 L54,342.09 A2.5,2.5 0 0 1 56.5,339.59 " fill="none" style="stroke:#000000;stroke-width:1.5;"/><line style="stroke:#000000;stroke-width:1.5;" x1="54" x2="166" y1="361.8869" y2="361.8869"/><text fill="#000000" font-family="sans-serif" font-size="14" font-weight="bold" lengthAdjust="spacing" textLength="99" x="58" y="354.5851">Repositories</text></g><!--cluster Models--><g id="cluster_Models"><path d="M439.5,693.38 L496.5,693.38 A3.75,3.75 0 0 1 499,695.88 L506,715.6769 L785.5,715.6769 A2.5,2.5 0 0 1 788,718.1769 L788,871.36 A2.5,2.5 0 0 1 785.5,873.86 L439.5,873.86 A2.5,2.5 0 0 1 437,871.36 L437,695.88 A2.5,2.5 0 0 1 439.5,693.38 " fill="none" style="stroke:#000000;stroke-width:1.5;"/><line style="stroke:#000000;stroke-width:1.5;" x1="437" x2="506" y1="715.6769" y2="715.6769"/><text fill="#000000" font-family="sans-serif" font-size="14" font-weight="bold" lengthAdjust="spacing" textLength="56" x="441" y="708.3751">Models</text></g><!--class UserController--><g id="elem_UserController"><rect codeLine="3" fill="#F1F1F1" height="80.5938" id="UserController" rx="2.5" ry="2.5" style="stroke:#181818;stroke-width:0.5;" width="212" x="86" y="127"/><ellipse cx="138.25" cy="143" fill="#ADD1B2" rx="11" ry="11" style="stroke:#181818;stroke-width:1.0;"/><path d="M141.2188,148.6406 Q140.6406,148.9375 140,149.0781 Q139.3594,149.2344 138.6563,149.2344 Q136.1563,149.2344 134.8281,147.5938 Q133.5156,145.9375 133.5156,142.8125 Q133.5156,139.6875 134.8281,138.0313 Q136.1563,136.375 138.6563,136.375 Q139.3594,136.375 140,136.5313 Q140.6563,136.6875 141.2188,136.9844 L141.2188,139.7031 Q140.5938,139.125 140,138.8594 Q139.4063,138.5781 138.7813,138.5781 Q137.4375,138.5781 136.75,139.6563 Q136.0625,140.7188 136.0625,142.8125 Q136.0625,144.9063 136.75,145.9844 Q137.4375,147.0469 138.7813,147.0469 Q139.4063,147.0469 140,146.7813 Q140.5938,146.5 141.2188,145.9219 L141.2188,148.6406 Z " fill="#000000"/><text fill="#000000" font-family="sans-serif" font-size="14" lengthAdjust="spacing" textLength="99" x="158.75" y="147.8467">UserController</text><line style="stroke:#181818;stroke-width:0.5;" x1="87" x2="297" y1="159" y2="159"/><line style="stroke:#181818;stroke-width:0.5;" x1="87" x2="297" y1="167" y2="167"/><ellipse cx="97" cy="180.6484" fill="#84BE84" rx="3" ry="3" style="stroke:#038048;stroke-width:1.0;"/><text fill="#000000" font-family="sans-serif" font-size="14" lengthAdjust="spacing" textLength="186" x="106" y="183.9951">Get(): IEnumerable&lt;User&gt;</text><ellipse cx="97" cy="196.9453" fill="#84BE84" rx="3" ry="3" style="stroke:#038048;stroke-width:1.0;"/><text fill="#000000" font-family="sans-serif" font-size="14" lengthAdjust="spacing" textLength="115" x="106" y="200.292">Post(User): Task</text></g><!--class XenoCantoEntryController--><g id="elem_XenoCantoEntryController"><rect codeLine="8" fill="#F1F1F1" height="80.5938" id="XenoCantoEntryController" rx="2.5" ry="2.5" style="stroke:#181818;stroke-width:0.5;" width="292" x="333" y="127"/><ellipse cx="385.25" cy="143" fill="#ADD1B2" rx="11" ry="11" style="stroke:#181818;stroke-width:1.0;"/><path d="M388.2188,148.6406 Q387.6406,148.9375 387,149.0781 Q386.3594,149.2344 385.6563,149.2344 Q383.1563,149.2344 381.8281,147.5938 Q380.5156,145.9375 380.5156,142.8125 Q380.5156,139.6875 381.8281,138.0313 Q383.1563,136.375 385.6563,136.375 Q386.3594,136.375 387,136.5313 Q387.6563,136.6875 388.2188,136.9844 L388.2188,139.7031 Q387.5938,139.125 387,138.8594 Q386.4063,138.5781 385.7813,138.5781 Q384.4375,138.5781 383.75,139.6563 Q383.0625,140.7188 383.0625,142.8125 Q383.0625,144.9063 383.75,145.9844 Q384.4375,147.0469 385.7813,147.0469 Q386.4063,147.0469 387,146.7813 Q387.5938,146.5 388.2188,145.9219 L388.2188,148.6406 Z " fill="#000000"/><text fill="#000000" font-family="sans-serif" font-size="14" lengthAdjust="spacing" textLength="179" x="405.75" y="147.8467">XenoCantoEntryController</text><line style="stroke:#181818;stroke-width:0.5;" x1="334" x2="624" y1="159" y2="159"/><line style="stroke:#181818;stroke-width:0.5;" x1="334" x2="624" y1="167" y2="167"/><ellipse cx="344" cy="180.6484" fill="#84BE84" rx="3" ry="3" style="stroke:#038048;stroke-width:1.0;"/><text fill="#000000" font-family="sans-serif" font-size="14" lengthAdjust="spacing" textLength="266" x="353" y="183.9951">Get(): IEnumerable&lt;XenoCantoEntry&gt;</text><ellipse cx="344" cy="196.9453" fill="#84BE84" rx="3" ry="3" style="stroke:#038048;stroke-width:1.0;"/><text fill="#000000" font-family="sans-serif" font-size="14" lengthAdjust="spacing" textLength="195" x="353" y="200.292">Post(XenoCantoEntry): Task</text></g><!--class XenoCantoEntryFetcher--><g id="elem_XenoCantoEntryFetcher"><rect codeLine="15" fill="#F1F1F1" height="64.2969" id="XenoCantoEntryFetcher" rx="2.5" ry="2.5" style="stroke:#181818;stroke-width:0.5;" width="313" x="680.5" y="135.15"/><ellipse cx="750.25" cy="151.15" fill="#ADD1B2" rx="11" ry="11" style="stroke:#181818;stroke-width:1.0;"/><path d="M753.2188,156.7906 Q752.6406,157.0875 752,157.2281 Q751.3594,157.3844 750.6563,157.3844 Q748.1563,157.3844 746.8281,155.7437 Q745.5156,154.0875 745.5156,150.9625 Q745.5156,147.8375 746.8281,146.1812 Q748.1563,144.525 750.6563,144.525 Q751.3594,144.525 752,144.6812 Q752.6563,144.8375 753.2188,145.1344 L753.2188,147.8531 Q752.5938,147.275 752,147.0094 Q751.4063,146.7281 750.7813,146.7281 Q749.4375,146.7281 748.75,147.8062 Q748.0625,148.8687 748.0625,150.9625 Q748.0625,153.0562 748.75,154.1344 Q749.4375,155.1969 750.7813,155.1969 Q751.4063,155.1969 752,154.9312 Q752.5938,154.65 753.2188,154.0719 L753.2188,156.7906 Z " fill="#000000"/><text fill="#000000" font-family="sans-serif" font-size="14" lengthAdjust="spacing" textLength="165" x="770.75" y="155.9967">XenoCantoEntryFetcher</text><line style="stroke:#181818;stroke-width:0.5;" x1="681.5" x2="992.5" y1="167.15" y2="167.15"/><line style="stroke:#181818;stroke-width:0.5;" x1="681.5" x2="992.5" y1="175.15" y2="175.15"/><ellipse cx="691.5" cy="188.7984" fill="#84BE84" rx="3" ry="3" style="stroke:#038048;stroke-width:1.0;"/><text fill="#000000" font-family="sans-serif" font-size="14" lengthAdjust="spacing" textLength="287" x="700.5" y="192.1451">FetchXcEntities(CancellationToken): Task</text></g><!--class IUserRepository--><g id="elem_IUserRepository"><rect codeLine="22" fill="#F1F1F1" height="96.8906" id="IUserRepository" rx="2.5" ry="2.5" style="stroke:#181818;stroke-width:0.5;" width="429" x="69.5" y="374.59"/><ellipse cx="225.25" cy="390.59" fill="#B4A7E5" rx="11" ry="11" style="stroke:#181818;stroke-width:1.0;"/><path d="M221.1719,386.3556 L221.1719,384.1994 L228.5625,384.1994 L228.5625,386.3556 L226.0938,386.3556 L226.0938,394.4338 L228.5625,394.4338 L228.5625,396.59 L221.1719,396.59 L221.1719,394.4338 L223.6406,394.4338 L223.6406,386.3556 L221.1719,386.3556 Z " fill="#000000"/><text fill="#000000" font-family="sans-serif" font-size="14" font-style="italic" lengthAdjust="spacing" textLength="109" x="245.75" y="395.4367">IUserRepository</text><line style="stroke:#181818;stroke-width:0.5;" x1="70.5" x2="497.5" y1="406.59" y2="406.59"/><line style="stroke:#181818;stroke-width:0.5;" x1="70.5" x2="497.5" y1="414.59" y2="414.59"/><ellipse cx="80.5" cy="428.2384" fill="#84BE84" rx="3" ry="3" style="stroke:#038048;stroke-width:1.0;"/><text fill="#000000" font-family="sans-serif" font-size="14" lengthAdjust="spacing" textLength="320" x="89.5" y="431.5851">AddUserAsync(User, CancellationToken): Task</text><ellipse cx="80.5" cy="444.5353" fill="#84BE84" rx="3" ry="3" style="stroke:#038048;stroke-width:1.0;"/><text fill="#000000" font-family="sans-serif" font-size="14" lengthAdjust="spacing" textLength="403" x="89.5" y="447.882">GetUserByIdAsync(Guid, CancellationToken): Task&lt;User&gt;</text><ellipse cx="80.5" cy="460.8322" fill="#84BE84" rx="3" ry="3" style="stroke:#038048;stroke-width:1.0;"/><text fill="#000000" font-family="sans-serif" font-size="14" lengthAdjust="spacing" textLength="395" x="89.5" y="464.1789">DeleteUserAsync(Guid, CancellationToken): Task&lt;User&gt;</text></g><!--class UserRepository--><g id="elem_UserRepository"><rect codeLine="28" fill="#F1F1F1" height="96.8906" id="UserRepository" rx="2.5" ry="2.5" style="stroke:#181818;stroke-width:0.5;" width="429" x="69.5" y="531.49"/><ellipse cx="226.75" cy="547.49" fill="#ADD1B2" rx="11" ry="11" style="stroke:#181818;stroke-width:1.0;"/><path d="M229.7188,553.1306 Q229.1406,553.4275 228.5,553.5681 Q227.8594,553.7244 227.1563,553.7244 Q224.6563,553.7244 223.3281,552.0838 Q222.0156,550.4275 222.0156,547.3025 Q222.0156,544.1775 223.3281,542.5213 Q224.6563,540.865 227.1563,540.865 Q227.8594,540.865 228.5,541.0213 Q229.1563,541.1775 229.7188,541.4744 L229.7188,544.1931 Q229.0938,543.615 228.5,543.3494 Q227.9063,543.0681 227.2813,543.0681 Q225.9375,543.0681 225.25,544.1463 Q224.5625,545.2088 224.5625,547.3025 Q224.5625,549.3963 225.25,550.4744 Q225.9375,551.5369 227.2813,551.5369 Q227.9063,551.5369 228.5,551.2713 Q229.0938,550.99 229.7188,550.4119 L229.7188,553.1306 Z " fill="#000000"/><text fill="#000000" font-family="sans-serif" font-size="14" lengthAdjust="spacing" textLength="106" x="247.25" y="552.3367">UserRepository</text><line style="stroke:#181818;stroke-width:0.5;" x1="70.5" x2="497.5" y1="563.49" y2="563.49"/><line style="stroke:#181818;stroke-width:0.5;" x1="70.5" x2="497.5" y1="571.49" y2="571.49"/><ellipse cx="80.5" cy="585.1384" fill="#84BE84" rx="3" ry="3" style="stroke:#038048;stroke-width:1.0;"/><text fill="#000000" font-family="sans-serif" font-size="14" lengthAdjust="spacing" textLength="320" x="89.5" y="588.4851">AddUserAsync(User, CancellationToken): Task</text><ellipse cx="80.5" cy="601.4353" fill="#84BE84" rx="3" ry="3" style="stroke:#038048;stroke-width:1.0;"/><text fill="#000000" font-family="sans-serif" font-size="14" lengthAdjust="spacing" textLength="403" x="89.5" y="604.782">GetUserByIdAsync(Guid, CancellationToken): Task&lt;User&gt;</text><ellipse cx="80.5" cy="617.7322" fill="#84BE84" rx="3" ry="3" style="stroke:#038048;stroke-width:1.0;"/><text fill="#000000" font-family="sans-serif" font-size="14" lengthAdjust="spacing" textLength="395" x="89.5" y="621.0789">DeleteUserAsync(Guid, CancellationToken): Task&lt;User&gt;</text></g><!--class IXenoCantoEntriyRepository--><g id="elem_IXenoCantoEntriyRepository"><rect codeLine="34" fill="#F1F1F1" height="64.2969" id="IXenoCantoEntriyRepository" rx="2.5" ry="2.5" style="stroke:#181818;stroke-width:0.5;" width="460" x="533" y="390.89"/><ellipse cx="662.75" cy="406.89" fill="#B4A7E5" rx="11" ry="11" style="stroke:#181818;stroke-width:1.0;"/><path d="M658.6719,402.6556 L658.6719,400.4994 L666.0625,400.4994 L666.0625,402.6556 L663.5938,402.6556 L663.5938,410.7338 L666.0625,410.7338 L666.0625,412.89 L658.6719,412.89 L658.6719,410.7338 L661.1406,410.7338 L661.1406,402.6556 L658.6719,402.6556 Z " fill="#000000"/><text fill="#000000" font-family="sans-serif" font-size="14" font-style="italic" lengthAdjust="spacing" textLength="192" x="683.25" y="411.7367">IXenoCantoEntriyRepository</text><line style="stroke:#181818;stroke-width:0.5;" x1="534" x2="992" y1="422.89" y2="422.89"/><line style="stroke:#181818;stroke-width:0.5;" x1="534" x2="992" y1="430.89" y2="430.89"/><ellipse cx="544" cy="444.5384" fill="#84BE84" rx="3" ry="3" style="stroke:#038048;stroke-width:1.0;"/><text fill="#000000" font-family="sans-serif" font-size="14" lengthAdjust="spacing" textLength="434" x="553" y="447.8851">GetXenoCantoEntryByIdAsync(string, CancellationToken): Task</text></g><!--class XenoCantoEntryRepository--><g id="elem_XenoCantoEntryRepository"><rect codeLine="38" fill="#F1F1F1" height="64.2969" id="XenoCantoEntryRepository" rx="2.5" ry="2.5" style="stroke:#181818;stroke-width:0.5;" width="460" x="533" y="547.78"/><ellipse cx="665.75" cy="563.78" fill="#ADD1B2" rx="11" ry="11" style="stroke:#181818;stroke-width:1.0;"/><path d="M668.7188,569.4206 Q668.1406,569.7175 667.5,569.8581 Q666.8594,570.0144 666.1563,570.0144 Q663.6563,570.0144 662.3281,568.3738 Q661.0156,566.7175 661.0156,563.5925 Q661.0156,560.4675 662.3281,558.8113 Q663.6563,557.155 666.1563,557.155 Q666.8594,557.155 667.5,557.3113 Q668.1563,557.4675 668.7188,557.7644 L668.7188,560.4831 Q668.0938,559.905 667.5,559.6394 Q666.9063,559.3581 666.2813,559.3581 Q664.9375,559.3581 664.25,560.4363 Q663.5625,561.4988 663.5625,563.5925 Q663.5625,565.6863 664.25,566.7644 Q664.9375,567.8269 666.2813,567.8269 Q666.9063,567.8269 667.5,567.5613 Q668.0938,567.28 668.7188,566.7019 L668.7188,569.4206 Z " fill="#000000"/><text fill="#000000" font-family="sans-serif" font-size="14" lengthAdjust="spacing" textLength="186" x="686.25" y="568.6267">XenoCantoEntryRepository</text><line style="stroke:#181818;stroke-width:0.5;" x1="534" x2="992" y1="579.78" y2="579.78"/><line style="stroke:#181818;stroke-width:0.5;" x1="534" x2="992" y1="587.78" y2="587.78"/><ellipse cx="544" cy="601.4284" fill="#84BE84" rx="3" ry="3" style="stroke:#038048;stroke-width:1.0;"/><text fill="#000000" font-family="sans-serif" font-size="14" lengthAdjust="spacing" textLength="434" x="553" y="604.7751">GetXenoCantoEntryByIdAsync(string, CancellationToken): Task</text></g><!--class User--><g id="elem_User"><rect codeLine="46" fill="#F1F1F1" height="80.5938" id="User" rx="2.5" ry="2.5" style="stroke:#181818;stroke-width:0.5;" width="114" x="453" y="752.82"/><ellipse cx="490.5" cy="768.82" fill="#ADD1B2" rx="11" ry="11" style="stroke:#181818;stroke-width:1.0;"/><path d="M493.4688,774.4606 Q492.8906,774.7575 492.25,774.8981 Q491.6094,775.0544 490.9063,775.0544 Q488.4063,775.0544 487.0781,773.4138 Q485.7656,771.7575 485.7656,768.6325 Q485.7656,765.5075 487.0781,763.8513 Q488.4063,762.195 490.9063,762.195 Q491.6094,762.195 492.25,762.3513 Q492.9063,762.5075 493.4688,762.8044 L493.4688,765.5231 Q492.8438,764.945 492.25,764.6794 Q491.6563,764.3981 491.0313,764.3981 Q489.6875,764.3981 489,765.4763 Q488.3125,766.5388 488.3125,768.6325 Q488.3125,770.7263 489,771.8044 Q489.6875,772.8669 491.0313,772.8669 Q491.6563,772.8669 492.25,772.6013 Q492.8438,772.32 493.4688,771.7419 L493.4688,774.4606 Z " fill="#000000"/><text fill="#000000" font-family="sans-serif" font-size="14" lengthAdjust="spacing" textLength="32" x="509.5" y="773.6667">User</text><line style="stroke:#181818;stroke-width:0.5;" x1="454" x2="566" y1="784.82" y2="784.82"/><ellipse cx="464" cy="798.4684" fill="none" rx="3" ry="3" style="stroke:#038048;stroke-width:1.0;"/><text fill="#000000" font-family="sans-serif" font-size="14" lengthAdjust="spacing" textLength="53" x="473" y="801.8151">Id: Guid</text><ellipse cx="464" cy="814.7653" fill="none" rx="3" ry="3" style="stroke:#038048;stroke-width:1.0;"/><text fill="#000000" font-family="sans-serif" font-size="14" lengthAdjust="spacing" textLength="88" x="473" y="818.112">Name: string</text><line style="stroke:#181818;stroke-width:0.5;" x1="454" x2="566" y1="825.4138" y2="825.4138"/></g><!--class XenoCantoEntry--><g id="elem_XenoCantoEntry"><rect codeLine="51" fill="#F1F1F1" height="129.4844" id="XenoCantoEntry" rx="2.5" ry="2.5" style="stroke:#181818;stroke-width:0.5;" width="170" x="602" y="728.38"/><ellipse cx="628.7" cy="744.38" fill="#ADD1B2" rx="11" ry="11" style="stroke:#181818;stroke-width:1.0;"/><path d="M631.6688,750.0206 Q631.0906,750.3175 630.45,750.4581 Q629.8094,750.6144 629.1063,750.6144 Q626.6063,750.6144 625.2781,748.9738 Q623.9656,747.3175 623.9656,744.1925 Q623.9656,741.0675 625.2781,739.4113 Q626.6063,737.755 629.1063,737.755 Q629.8094,737.755 630.45,737.9113 Q631.1063,738.0675 631.6688,738.3644 L631.6688,741.0831 Q631.0438,740.505 630.45,740.2394 Q629.8563,739.9581 629.2313,739.9581 Q627.8875,739.9581 627.2,741.0363 Q626.5125,742.0988 626.5125,744.1925 Q626.5125,746.2863 627.2,747.3644 Q627.8875,748.4269 629.2313,748.4269 Q629.8563,748.4269 630.45,748.1613 Q631.0438,747.88 631.6688,747.3019 L631.6688,750.0206 Z " fill="#000000"/><text fill="#000000" font-family="sans-serif" font-size="14" lengthAdjust="spacing" textLength="112" x="645.3" y="749.2267">XenoCantoEntry</text><line style="stroke:#181818;stroke-width:0.5;" x1="603" x2="771" y1="760.38" y2="760.38"/><ellipse cx="613" cy="774.0284" fill="none" rx="3" ry="3" style="stroke:#038048;stroke-width:1.0;"/><text fill="#000000" font-family="sans-serif" font-size="14" lengthAdjust="spacing" textLength="60" x="622" y="777.3751">Id: string</text><ellipse cx="613" cy="790.3253" fill="none" rx="3" ry="3" style="stroke:#038048;stroke-width:1.0;"/><text fill="#000000" font-family="sans-serif" font-size="14" lengthAdjust="spacing" textLength="88" x="622" y="793.672">Name: string</text><ellipse cx="613" cy="806.6222" fill="none" rx="3" ry="3" style="stroke:#038048;stroke-width:1.0;"/><text fill="#000000" font-family="sans-serif" font-size="14" lengthAdjust="spacing" textLength="66" x="622" y="809.9689">Url: string</text><ellipse cx="613" cy="822.9191" fill="none" rx="3" ry="3" style="stroke:#038048;stroke-width:1.0;"/><text fill="#000000" font-family="sans-serif" font-size="14" lengthAdjust="spacing" textLength="74" x="622" y="826.2657">Length: int</text><ellipse cx="613" cy="839.2159" fill="none" rx="3" ry="3" style="stroke:#038048;stroke-width:1.0;"/><text fill="#000000" font-family="sans-serif" font-size="14" lengthAdjust="spacing" textLength="144" x="622" y="842.5626">Recorded: DateTime</text><line style="stroke:#181818;stroke-width:0.5;" x1="603" x2="771" y1="849.8644" y2="849.8644"/></g><!--reverse link IUserRepository to UserRepository--><g id="link_IUserRepository_UserRepository"><path d="M284,489.78 C284,508.62 284,512.23 284,531.09 " fill="none" id="IUserRepository-backto-UserRepository" style="stroke:#181818;stroke-width:1.0;stroke-dasharray:7.0,7.0;"/><polygon fill="none" points="284,471.78,278,489.78,290,489.78,284,471.78" style="stroke:#181818;stroke-width:1.0;"/></g><!--reverse link IXenoCantoEntriyRepository to XenoCantoEntryRepository--><g id="link_IXenoCantoEntriyRepository_XenoCantoEntryRepository"><path d="M763,473.38 C763,500.17 763,520.52 763,547.37 " fill="none" id="IXenoCantoEntriyRepository-backto-XenoCantoEntryRepository" style="stroke:#181818;stroke-width:1.0;stroke-dasharray:7.0,7.0;"/><polygon fill="none" points="763,455.38,757,473.38,769,473.38,763,455.38" style="stroke:#181818;stroke-width:1.0;"/></g><!--link UserRepository to User--><g id="link_UserRepository_User"><path codeLine="61" d="M335.28,628.85 C375.26,666.21 425.736,713.3736 463.246,748.4236 " fill="none" id="UserRepository-to-User" style="stroke:#181818;stroke-width:1.0;stroke-dasharray:7.0,7.0;"/><polygon fill="#181818" points="467.63,752.52,463.785,743.4527,463.9767,749.1063,458.3231,749.298,467.63,752.52" style="stroke:#181818;stroke-width:1.0;"/><text fill="#000000" font-family="sans-serif" font-size="13" lengthAdjust="spacing" textLength="39" x="384" y="673.4469">&#171;use&#187;</text></g><!--link XenoCantoEntryRepository to XenoCantoEntry--><g id="link_XenoCantoEntryRepository_XenoCantoEntry"><path codeLine="62" d="M751.62,612.55 C740.69,642.92 725.8821,684.0746 712.1321,722.2746 " fill="none" id="XenoCantoEntryRepository-to-XenoCantoEntry" style="stroke:#181818;stroke-width:1.0;stroke-dasharray:7.0,7.0;"/><polygon fill="#181818" points="710.1,727.92,716.9117,720.8066,711.7934,723.2155,709.3845,718.0972,710.1,727.92" style="stroke:#181818;stroke-width:1.0;"/><text fill="#000000" font-family="sans-serif" font-size="13" lengthAdjust="spacing" textLength="39" x="735" y="673.4469">&#171;use&#187;</text></g><!--link XenoCantoEntryFetcher to IXenoCantoEntriyRepository--><g id="link_XenoCantoEntryFetcher_IXenoCantoEntriyRepository"><path codeLine="65" d="M827.78,199.92 C813.56,248.68 788.1198,335.8999 773.8998,384.6599 " fill="none" id="XenoCantoEntryFetcher-to-IXenoCantoEntriyRepository" style="stroke:#181818;stroke-width:1.0;stroke-dasharray:7.0,7.0;"/><polygon fill="#181818" points="772.22,390.42,778.5798,382.8998,773.6198,385.62,770.8997,380.66,772.22,390.42" style="stroke:#181818;stroke-width:1.0;"/><text fill="#000000" font-family="sans-serif" font-size="13" lengthAdjust="spacing" textLength="39" x="809" y="276.6569">&#171;use&#187;</text></g><!--link UserController to IUserRepository--><g id="link_UserController_IUserRepository"><path codeLine="66" d="M206.38,207.94 C222.7,252.97 247.2747,320.7494 264.7047,368.8194 " fill="none" id="UserController-to-IUserRepository" style="stroke:#181818;stroke-width:1.0;stroke-dasharray:7.0,7.0;"/><polygon fill="#181818" points="266.75,374.46,267.4425,364.6355,265.0456,369.7595,259.9217,367.3626,266.75,374.46" style="stroke:#181818;stroke-width:1.0;"/><text fill="#000000" font-family="sans-serif" font-size="13" lengthAdjust="spacing" textLength="39" x="233" y="276.6569">&#171;use&#187;</text></g><!--link XenoCantoEntryController to IXenoCantoEntriyRepository--><g id="link_XenoCantoEntryController_IXenoCantoEntriyRepository"><path codeLine="67" d="M523.38,207.94 C579.85,258.4 671.7758,340.5323 723.4158,386.6723 " fill="none" id="XenoCantoEntryController-to-IXenoCantoEntriyRepository" style="stroke:#181818;stroke-width:1.0;stroke-dasharray:7.0,7.0;"/><polygon fill="#181818" points="727.89,390.67,723.8438,381.6907,724.1615,387.3386,718.5136,387.6563,727.89,390.67" style="stroke:#181818;stroke-width:1.0;"/><text fill="#000000" font-family="sans-serif" font-size="13" lengthAdjust="spacing" textLength="39" x="604" y="276.6569">&#171;use&#187;</text></g><!--SRC=[tLHDQyCm3BtdLvYTEZRo0q89z6ibi8tIjT2hPskjgMC7sns4qVy-E_r8x2PjJplCXnmaFUdfIL61oHQl0JqCcQA3MHOF2lO1wfiHY4TI62Kv1wKVq4-4x2CSQusM6bJjFBhSUvg2wJqcA9k8NGuAVtBek-2qZfX9RNhEPiCMM6yhppvgP5-1a2CiZ9pO2kNTTNnOMD7t-hLjzU8eGuiAG-jQAxaJz6ZHdXP-uXSmPEDJhKmhOjtCCD0z6qo0SsoO50kv1N51vipcF9GnDZYUGo4rCrBPBATvC650VM42A7EQdaFA9eC1fSuvqAKWbVJFw2g9ay8kT5Xcz02SxXZj1ePZ7WC70tNPkz7xwXiiMwClbXSSSX16_wEMmrbwIyNAzXujNN_vQkBQeiJwHiyNIllPEZJ_8shkD-Zu3zua1TvoaPe4CfeWftzjUSSv9EXG_TRD2JCrKEsvAkjIyKlZAuYrsIHkkBLn3aGg2ZQpRGWMB8VcG2onOB7ZE3rqcA1-VwSXJQFEMRdOe9iQ5KNjvyg1haosJX1S_WeNaEtY6CBkAHVz0W00]--></g></svg>